<!--?xml version="1.0" encoding="utf-8"?--><svg xmlns="http://www.w3.org/2000/svg" version="1.1" baseProfile="tiny" width="100%" height="100%" viewBox="0 0 1200 800"><g id="G_1" class="area" title=""><g stroke="#000000" stroke-width=".98" fill="#FFFFFF" id="G_2" class="area" title=""><path d="m521.83 582.53l-6.77-5.08-23.7 22.41 17.39 34.21 32.36-27.24 15.53-30.64 23.7-45.26-25.39-12.32-33.12 63.92z" id="NUEVOHORIZONTE" class="area" title="NUEVOHORIZONTE"></path><path d="m512.14 571.51l29.86-58.37-69.03-37.8-15.2 34.31 54.37 61.86z" id="HACIENDA" class="area" title="HACIENDA"></path><path d="m520.86 582.83l34.52-63.52-12.84-5.64-30.01 58.54 8.33 10.62z" id="PROGRESO" class="area" title="PROGRESO"></path><path d="m541.9 607.89l8.1 1.49 17.06 9.66 32.89 16.66 12.84-25.79 22.97-52.24-54.96-27.74-38.9 77.96z" id="PARAISO" class="area" title="PARAISO"></path><path d="m612.26 609.75l30.37 13.97 21.41-51.54-28.41-13.91-23.37 51.48z" id="GAITAN" class="area" title="JORGE E GAITAN"></path><path d="m578.78 678.81l81.31 43.18 20.77-43.74 26.78-54.83-54.16-26.02-12.38 25.42-29.2-15-33.12 70.99z" id="FAJARDO" class="area" title="FAJARDO"></path><path d="m659.59 723.18l10.65 9.56 15.63 4.41 8.47-13.97 27.61-61.83-26.32-13.6-36.04 75.43z" id="FRAYLE" class="area" title="RIO FRAYLE"></path><path d="m663.7 573.7l-10.25 22.57 53.03 26.02-10.78 21.84 26.51 15.33-31.56 73.74 117.42-61.59 24.63 11.08 12.74-26.95 15.43 8.1 18.69-24.82-42.45-39.69-124.06-65.85-24.06 52.57-25.29-12.35z" id="CABA_xD1_A" class="area" title="CABAÑA"></path><path d="m839.37 600.72l26.85-63.75-126.22-62.36-26.85 58.37 126.22 67.74z" id="SANANTONIO" class="area" title="SAN ANTONIO"></path><path d="m839.8 601.22l30.46 28.6 36.28 33.59 8.2 6.14 11.08.63 23.03-5.11 8.43-2.46 16-7.76 6.17 0 10.65 3.68 6.21-.1-69.93-84.36-22.7 25.02-51.24-28.64-12.64 30.77z" id="ALMENDROS" class="area" title="ALMENDROS"></path><path d="m159.62 218.16l-28.51 39.1 8.83 17.29 23.72 20.61 8.07 4.95 26.98-26.85 12.18-5.94-25.16-24.56-26.11-24.6z" id="CEDRO" class="area" title="CEDRO"></path><path d="m758.92 437.57l-48.79-18.92 6.81-21.87-9.99-4.38-14.24-1.79-15.4 1.66-14.04-9.23-38.73 68.93 102.05 52.04 32.33-66.44z" id="LOPEZ" class="area" title="LOPEZ"></path><path d="m928.71 496.87l-5.08-5.84-14.77-10.32-20.64-8.23-18.98.6-13.35-1.39-9.89.79-19.91-5.21-7.27-13.14-17.32-11.32-8.43-4.38-21.97-2.49-12.15 4.38-18.42 35.31 160.66 79.19 27.52-57.95z" id="MONCALEANO" class="area" title="MONCALEANO"></path><path d="m904.08 599.13l23.83-26.49-4.45-6.04-11.74-7.66-19.75-8.53-25.72-13.25-13.87 33.16 33.32 19.28 18.38 9.53z" id="DONPACO" class="area" title="DON PACO"></path><path d="m551.96 378.69l31.56 16.7.57-.87 1.06.87 54.73 28.51 19.14-32.86 5.61-9.79-14.83-13.77-9.46-7.84-10.79-4.01-26.71 5.41-12.65-1.26-13.04-1.17-4.38.93-8-6.14-12.81 25.29z" id="PEREZ" class="area" title="PEREZ"></path><path d="m381.67 298.01l-24.65-3.38-14.24-.47-13.31-5.17-12.54 18.38-13.71.7-7.97 2.09 61.83 34.88 20.78-39.76 3.81-7.27z" id="QUINAMAYO" class="area" title="QUINAMAYO"></path><path d="m551.89 378.83l13.15-25.82-6.57-19.62-3.16-8.39-7.17-4.42-13.87 26.75-9.95 17.89 27.57 13.61z" id="LIMONAR" class="area" title="LIMONAR"></path><path d="m524.55 364.95l23.33-43.67-23.17-8.1-13.3-11.91-12.35-6.24-17.03-8.37-18.48-4.18-14.01-2.88-10.52 21.4 13.24 3.09-9.39 19.48 81.68 41.38z" id="CRISTALES" class="area" title="CRISTALES"></path><path d="m999 648.48l-6.87 5.94 14.3 11.45 7.77 6.77 19.71 10.85 40.99-54.76-25.39-22.63-41.62 52.53-8.89-10.15z" id="RECREO" class="area active" title="RECREO"></path><path d="m990.64 651l35.34-46.4-19.31-19.48-33.09 44.17 17.06 21.71z" id="CAMINOREAL" class="area" title="CAMINO REAL"></path><path d="m560.76 737.68l8.52 41.36 35.02 5.8 11.98 2.73 13.74 7.43 8.86-10.06-7.67-28.7-31.56-37.27-24.62-14.37-14.27 33.08z" id="PUBENZA" class="area" title="PUBENZA"></path><path d="m829.54 404.81l-16.43 35.38 7.24 4.98 26.98-.9-2.59 10.29 32.43-1.59 3.12 13.17 11.88-1.06.96 4.61 23.76-.49-22.47-140.79-51.24 6.94-13.64 69.46z" id="CASILDA" class="area" title="CASILDA"></path><path d="m125.1 183.15l21.87 19.32 53.63-188.44-21.2-9.03-54.3 178.15z" id="PUEBLITO" class="area" title="PUEBLITO"></path><path d="m688.79 585.29l38.34-81.05-102.92-52.3 15.7-27.88-55.72-28.97-60.57 107.56 165.17 82.64z" id="PTONUEVO" class="area" title="PUERTO NUEVO"></path><path d="m904.88 713.99l19.88-34.08 1.89-9-11.75-.36-5.71-3.46-10.15-9.69-21.11-19.15-16.56 25.56-15.9-7.44-11.25 26.22 70.66 31.4z" id="AURORA" class="area" title="AURORA"></path><path d="m454.85 510.68l29.91-62.92 54.42 27.01 44.77-79.52-141.87-71.18 9.19-19.45-15.6-3.98-54.29-2.76-23.4 47.92-134.78-74.67-3.75 7.8 142.21 124.92 93.19 106.83z" id="ESPERANZA" class="area" title="ESPERANZA"></path><path d="m665.34 380.81l5.88-6.98 20.11-59.42-16.09-13.36-13.75 20.43-26.12-15.32-6.73 10.9-17.8-10.17-7.73 11.56-12.29-7.5-24.76 41.75 6.09 6.12 6.45-.1 24.7 1.37 27-4.24 9.92 3.36 25.12 21.6z" id="SANJORGE" class="area" title="SANJORGE"></path><path d="m708.11 392.64l4.13-18.08 16.98-4.9 5.87-3.92 9.8-145.17-158.94-23.5-16.34 90.66-1.16 18.16-12.16 19.52 8.69 26.45 26.12-39.95 11.17 6.1 8.77-10.82 17.6 8.97 7.08-9.85 25.83 14.59 13.56-20.66 15.77 13.97-18.78 60.56-7.07 7.18 12.25 9.17 18.01-1.09 12.82 2.61z" id="VILLANANCY" class="area" title="VILLANANCY"></path></g></g></svg>